<svg width="36" height="36" viewBox="0 0 36 36" fill="none" xmlns="http://www.w3.org/2000/svg">
<rect width="36" height="36" rx="8" fill="white"/>
<g clip-path="url(#clip0_161_153)">
<path d="M11.016 13.9681L18 18.0081L24.984 13.9681M18 26.0641V18.0001M25.2001 21.2001V14.8001C25.1998 14.5195 25.1257 14.2439 24.9853 14.001C24.8449 13.7581 24.643 13.5564 24.4001 13.4161L18.8 10.2161C18.5568 10.0756 18.2809 10.0017 18 10.0017C17.7192 10.0017 17.4433 10.0756 17.2 10.2161L11.6 13.4161C11.3571 13.5564 11.1552 13.7581 11.0148 14.001C10.8744 14.2439 10.8003 14.5195 10.8 14.8001V21.2001C10.8003 21.4807 10.8744 21.7562 11.0148 21.9991C11.1552 22.2421 11.3571 22.4438 11.6 22.5841L17.2 25.7841C17.4433 25.9245 17.7192 25.9984 18 25.9984C18.2809 25.9984 18.5568 25.9245 18.8 25.7841L24.4001 22.5841C24.643 22.4438 24.8449 22.2421 24.9853 21.9991C25.1257 21.7562 25.1998 21.4807 25.2001 21.2001Z" stroke="#13294D" stroke-width="2.5" stroke-linecap="round" stroke-linejoin="round"/>
</g>
<defs>
<clipPath id="clip0_161_153">
<rect width="19.2" height="19.2" fill="white" transform="translate(8.40002 8.40002)"/>
</clipPath>
</defs>
</svg>
