<svg width="64" height="64" viewBox="0 0 64 64" fill="none" xmlns="http://www.w3.org/2000/svg">
<rect width="64" height="64" rx="12" fill="#0D1221"/>
<path d="M19.5841 24.832L32.0001 32.0142L44.4161 24.832M32.0001 46.336V32M44.8001 37.6889V26.3111C44.7996 25.8123 44.6679 25.3224 44.4183 24.8905C44.1686 24.4587 43.8098 24.1001 43.3778 23.8507L33.4223 18.1618C32.9899 17.9121 32.4994 17.7807 32.0001 17.7807C31.5008 17.7807 31.0103 17.9121 30.5778 18.1618L20.6223 23.8507C20.1903 24.1001 19.8315 24.4587 19.5819 24.8905C19.3323 25.3224 19.2006 25.8123 19.2001 26.3111V37.6889C19.2006 38.1877 19.3323 38.6776 19.5819 39.1095C19.8315 39.5413 20.1903 39.8999 20.6223 40.1493L30.5778 45.8382C31.0103 46.0879 31.5008 46.2193 32.0001 46.2193C32.4994 46.2193 32.9899 46.0879 33.4223 45.8382L43.3778 40.1493C43.8098 39.8999 44.1686 39.5413 44.4183 39.1095C44.6679 38.6776 44.7996 38.1877 44.8001 37.6889Z" stroke="white" stroke-width="4" stroke-linecap="round" stroke-linejoin="round"/>
</svg>
